
<svg xmlns="http://www.w3.org/2000/svg" xmlns:xlink="http://www.w3.org/1999/xlink" width="2000" zoomAndPan="magnify" viewBox="0 0 1500 525.000007" height="700" preserveAspectRatio="xMidYMid meet" version="1.0"><defs><g/><clipPath id="b48fd00475"><path d="M 11.703125 63.195312 L 362.035156 63.195312 L 362.035156 460.6875 L 11.703125 460.6875 Z M 11.703125 63.195312 " clip-rule="nonzero"/></clipPath></defs><g clip-path="url(#b48fd00475)"><path fill="#ffffff" d="M 97.269531 269.007812 C 97.621094 274.964844 98.671875 280.851562 100.28125 286.597656 L 79.679688 289.191406 L 79.46875 289.191406 C 79.398438 288.980469 79.328125 288.769531 79.257812 288.628906 C 78.277344 285.894531 77.4375 283.09375 76.734375 280.289062 C 76.175781 278.1875 75.683594 276.15625 75.335938 274.054688 C 74.074219 267.464844 73.371094 260.738281 73.300781 253.941406 C 73.300781 253.660156 73.300781 253.449219 73.300781 253.238281 C 73.300781 239.011719 76.035156 225.488281 81.082031 212.945312 C 81.152344 212.804688 81.152344 212.734375 81.222656 212.59375 C 81.5 211.964844 81.78125 211.261719 82.0625 210.632812 C 99.863281 169.074219 142.890625 139.710938 192.925781 139.710938 C 195.730469 139.710938 198.53125 139.78125 201.335938 139.992188 C 223.410156 141.464844 244.574219 148.824219 262.445312 160.875 C 265.808594 163.1875 269.03125 165.570312 272.183594 168.234375 C 273.375 169.214844 274.496094 170.195312 275.617188 171.179688 L 260.972656 200.402344 C 255.996094 195.773438 250.53125 191.640625 244.714844 188.136719 C 239.949219 185.261719 234.902344 182.8125 229.648438 180.777344 C 218.152344 176.292969 205.679688 173.910156 192.996094 173.910156 C 141.136719 173.910156 98.742188 212.664062 97.199219 260.949219 C 97.199219 261.859375 97.128906 262.839844 97.128906 263.75 C 97.128906 265.433594 97.128906 267.183594 97.269531 269.007812 Z M 267.558594 216.378906 C 216.121094 272.863281 137.984375 287.929688 108.902344 291.710938 C 107.289062 291.921875 105.820312 292.0625 104.558594 292.203125 L 105.117188 298.859375 C 106.027344 310.351562 108.410156 321.636719 112.265625 332.429688 L 114.296875 338.175781 L 140.015625 332.636719 L 162.019531 327.941406 L 167.417969 336.492188 C 169.027344 340.066406 170.21875 343.570312 171.0625 346.933594 C 177.71875 372.09375 167.417969 390.3125 167.417969 390.3125 C 196.992188 435.582031 284.519531 460.25 285.917969 460.671875 C 273.234375 449.878906 271.34375 430.886719 271.34375 430.886719 L 272.324219 335.019531 L 255.296875 328.011719 L 228.597656 317.011719 L 234.273438 297.527344 L 271.273438 310.144531 L 278.910156 312.734375 L 279.402344 343.640625 L 277.511719 362.632812 L 294.609375 374.964844 C 298.394531 308.390625 277.019531 204.816406 277.019531 204.816406 C 274.078125 208.949219 270.851562 212.734375 267.558594 216.378906 Z M 265.667969 213.503906 C 249.269531 192.550781 222.777344 178.957031 192.855469 178.957031 C 143.03125 178.957031 102.664062 216.589844 102.664062 263.050781 C 102.664062 272.089844 104.207031 280.78125 107.011719 288.910156 C 136.09375 285.125 214.160156 269.988281 265.667969 213.503906 Z M 110.722656 409.445312 C 149.546875 387.71875 153.121094 333.128906 153.121094 333.128906 L 117.800781 340.488281 Z M 347.308594 123.664062 C 349.480469 123.3125 351.722656 122.894531 353.894531 122.542969 C 342.683594 113.433594 328.808594 104.742188 313.53125 96.964844 C 302.597656 104.671875 292.367188 113.503906 283.117188 123.246094 C 280.382812 126.257812 277.652344 129.339844 274.917969 132.355469 C 277.582031 129.269531 280.3125 126.1875 283.117188 123.246094 C 291.175781 114.273438 299.234375 105.375 307.292969 96.40625 C 307.855469 95.773438 308.34375 95.214844 308.90625 94.582031 C 298.953125 89.675781 288.511719 85.191406 277.859375 81.265625 C 276.25 83.789062 274.636719 86.3125 273.023438 88.90625 C 273.585938 85.894531 273.726562 82.808594 273.585938 79.726562 C 259.851562 74.820312 245.976562 70.753906 232.660156 67.953125 C 228.945312 76.710938 226.214844 85.894531 224.601562 95.28125 C 224.671875 85.683594 224.671875 76.011719 224.742188 66.410156 C 213.527344 64.378906 202.878906 63.328125 193.207031 63.328125 C 192.15625 63.328125 191.105469 63.328125 190.050781 63.328125 C 188.230469 78.535156 188.792969 94.023438 189.351562 109.367188 C 187.738281 94.089844 186.199219 78.746094 184.585938 63.46875 C 165.105469 64.308594 146.324219 67.882812 128.734375 73.839844 C 127.683594 74.191406 126.703125 74.539062 125.652344 74.890625 C 126 78.816406 126.773438 82.667969 128.035156 86.382812 C 128.035156 86.382812 128.035156 86.3125 127.964844 86.3125 C 128.382812 87.714844 128.804688 89.117188 129.292969 90.449219 C 126 86.101562 123.128906 81.546875 120.535156 76.78125 C 110.09375 80.917969 100.28125 85.960938 91.171875 91.777344 C 94.957031 99.347656 98.8125 106.847656 102.59375 114.414062 C 97.410156 107.757812 92.574219 100.890625 88.160156 93.742188 C 78.136719 100.46875 69.027344 108.109375 60.828125 116.585938 C 61.039062 116.9375 61.25 117.289062 61.527344 117.707031 C 67.765625 127.589844 74.421875 137.191406 81.5 146.441406 C 73.164062 138.03125 64.824219 129.621094 56.554688 121.210938 C 47.234375 131.582031 39.246094 143.007812 32.726562 155.128906 C 39.59375 161.015625 46.390625 166.832031 53.261719 172.71875 C 45.480469 168.726562 37.632812 164.800781 29.785156 160.875 C 24.597656 171.457031 20.535156 182.53125 17.589844 193.882812 C 23.195312 197.035156 28.734375 200.332031 34.128906 203.90625 C 28.242188 202.082031 22.355469 200.261719 16.46875 198.4375 C 14.785156 205.726562 13.527344 213.226562 12.824219 220.722656 C 15.910156 221.492188 18.992188 222.40625 21.933594 223.597656 C 18.851562 224.085938 15.628906 224.296875 12.472656 224.296875 C 11.703125 234.457031 11.773438 244.832031 12.824219 255.132812 C 20.882812 253.871094 29.082031 253.660156 37.140625 254.5 C 34.410156 254.359375 31.675781 255.34375 29.082031 256.324219 C 23.96875 258.285156 18.851562 260.246094 13.664062 262.210938 C 16.398438 281.199219 22.355469 300.191406 31.816406 318.273438 L 32.515625 317.851562 C 33.359375 315.820312 34.550781 313.925781 35.949219 312.175781 C 39.664062 307.480469 44.78125 304.117188 50.035156 301.171875 C 58.234375 296.617188 66.996094 292.972656 76.035156 290.449219 C 75.964844 290.3125 75.894531 290.101562 75.824219 289.890625 L 75.753906 289.820312 C 74.773438 287.015625 73.933594 284.074219 73.164062 281.128906 C 72.601562 279.027344 72.109375 276.785156 71.691406 274.683594 C 70.289062 267.605469 69.589844 260.386719 69.589844 253.097656 C 69.589844 238.734375 72.320312 224.71875 77.648438 211.402344 C 77.648438 211.332031 77.71875 211.191406 77.789062 211.050781 C 86.6875 189.117188 102.105469 170.40625 122.425781 156.882812 C 143.242188 143.078125 167.628906 135.789062 192.996094 135.789062 C 218.363281 135.789062 243.800781 143.566406 264.617188 157.652344 C 269.382812 160.875 273.9375 164.449219 278.140625 168.234375 C 280.453125 163.960938 283.816406 160.386719 287.320312 157.09375 C 300.214844 145.179688 316.683594 137.539062 333.714844 133.546875 C 343.035156 131.375 352.5625 130.253906 362.09375 129.902344 C 357.679688 126.957031 352.5625 124.15625 347.308594 123.664062 Z M 347.308594 123.664062 " fill-opacity="1" fill-rule="nonzero"/></g><g fill="#ffffff" fill-opacity="1"><g transform="translate(391.596948, 396.082227)"><g><path d="M 155.9375 -263.953125 C 163.269531 -263.953125 170.273438 -263.5625 176.953125 -262.78125 C 183.628906 -262 190.109375 -260.625 196.390625 -258.65625 C 202.679688 -256.6875 209.035156 -254.128906 215.453125 -250.984375 C 221.867188 -247.847656 228.609375 -244.054688 235.671875 -239.609375 L 241.96875 -258.0625 L 247.859375 -258.0625 L 251 -180.6875 L 241.96875 -180.6875 C 238.039062 -204.519531 228.546875 -222.847656 213.484375 -235.671875 C 198.429688 -248.503906 179.773438 -254.921875 157.515625 -254.921875 C 143.367188 -254.921875 130.726562 -251.910156 119.59375 -245.890625 C 108.46875 -239.867188 99.039062 -231.226562 91.3125 -219.96875 C 83.59375 -208.707031 77.703125 -195.21875 73.640625 -179.5 C 69.585938 -163.789062 67.5625 -146.117188 67.5625 -126.484375 C 67.5625 -107.628906 69.65625 -90.609375 73.84375 -75.421875 C 78.03125 -60.234375 84.050781 -47.332031 91.90625 -36.71875 C 99.769531 -26.113281 109.265625 -17.992188 120.390625 -12.359375 C 131.523438 -6.734375 144.03125 -3.921875 157.90625 -3.921875 C 168.90625 -3.921875 178.984375 -5.359375 188.140625 -8.234375 C 197.304688 -11.117188 205.554688 -15.898438 212.890625 -22.578125 C 220.222656 -29.265625 226.703125 -38.101562 232.328125 -49.09375 C 237.960938 -60.09375 242.742188 -73.84375 246.671875 -90.34375 L 253.75 -90.34375 L 253.75 -4.328125 L 248.640625 -4.328125 L 239.21875 -24.359375 C 227.425781 -14.929688 214.65625 -7.660156 200.90625 -2.546875 C 187.164062 2.554688 170.867188 5.109375 152.015625 5.109375 C 131.847656 5.109375 113.515625 1.898438 97.015625 -4.515625 C 80.523438 -10.929688 66.453125 -19.832031 54.796875 -31.21875 C 43.140625 -42.613281 34.171875 -56.296875 27.890625 -72.265625 C 21.609375 -88.242188 18.46875 -105.789062 18.46875 -124.90625 C 18.46875 -145.332031 21.867188 -164.054688 28.671875 -181.078125 C 35.484375 -198.097656 44.976562 -212.757812 57.15625 -225.0625 C 69.332031 -237.375 83.863281 -246.929688 100.75 -253.734375 C 117.644531 -260.546875 136.039062 -263.953125 155.9375 -263.953125 Z M 155.9375 -263.953125 "/></g></g></g><g fill="#ffffff" fill-opacity="1"><g transform="translate(658.70192, 396.082227)"><g><path d="M 11 -259.25 L 70.3125 -257.671875 C 72.144531 -257.671875 75.675781 -257.734375 80.90625 -257.859375 C 86.144531 -257.992188 91.578125 -258.191406 97.203125 -258.453125 C 102.835938 -258.722656 108.144531 -258.921875 113.125 -259.046875 C 118.101562 -259.179688 121.378906 -259.25 122.953125 -259.25 C 135.773438 -259.25 147.945312 -257.804688 159.46875 -254.921875 C 171 -252.046875 180.953125 -247.789062 189.328125 -242.15625 C 197.703125 -236.53125 204.378906 -229.523438 209.359375 -221.140625 C 214.335938 -212.765625 216.828125 -203.078125 216.828125 -192.078125 C 216.828125 -167.460938 207.59375 -149.328125 189.125 -137.671875 C 170.664062 -126.023438 145.460938 -120.203125 113.515625 -120.203125 C 111.421875 -120.203125 109.0625 -120.265625 106.4375 -120.390625 C 103.820312 -120.523438 101.269531 -120.65625 98.78125 -120.78125 C 96.300781 -120.914062 94.078125 -121.046875 92.109375 -121.171875 C 90.148438 -121.304688 88.90625 -121.375 88.375 -121.375 L 88.375 -71.484375 C 88.375 -58.921875 88.703125 -47.660156 89.359375 -37.703125 C 90.015625 -27.753906 91.785156 -20.945312 94.671875 -17.28125 C 97.546875 -13.351562 101.535156 -10.863281 106.640625 -9.8125 C 111.742188 -8.769531 119.535156 -8.25 130.015625 -8.25 L 130.015625 0.78125 C 126.347656 0.78125 121.304688 0.710938 114.890625 0.578125 C 108.472656 0.453125 102.054688 0.257812 95.640625 0 C 89.222656 -0.257812 83.460938 -0.453125 78.359375 -0.578125 C 73.253906 -0.710938 70.046875 -0.78125 68.734375 -0.78125 C 67.429688 -0.78125 64.488281 -0.710938 59.90625 -0.578125 C 55.320312 -0.453125 50.148438 -0.257812 44.390625 0 C 38.628906 0.257812 32.671875 0.453125 26.515625 0.578125 C 20.359375 0.710938 15.1875 0.78125 11 0.78125 L 11 -8.25 C 22 -8.25 29.523438 -9.097656 33.578125 -10.796875 C 37.640625 -12.503906 40.71875 -14.925781 42.8125 -18.0625 C 43.863281 -19.632812 44.710938 -22.1875 45.359375 -25.71875 C 46.015625 -29.257812 46.539062 -33.382812 46.9375 -38.09375 C 47.332031 -42.8125 47.59375 -47.984375 47.71875 -53.609375 C 47.851562 -59.242188 47.921875 -64.941406 47.921875 -70.703125 L 47.921875 -187.359375 C 47.921875 -201.503906 47.59375 -212.894531 46.9375 -221.53125 C 46.28125 -230.175781 45.035156 -236.203125 43.203125 -239.609375 C 42.421875 -241.179688 41.304688 -242.617188 39.859375 -243.921875 C 38.421875 -245.234375 36.523438 -246.347656 34.171875 -247.265625 C 31.816406 -248.179688 28.804688 -248.898438 25.140625 -249.421875 C 21.472656 -249.953125 16.757812 -250.21875 11 -250.21875 Z M 88.375 -131.984375 C 91.519531 -131.453125 95.445312 -131.054688 100.15625 -130.796875 C 104.875 -130.535156 108.671875 -130.40625 111.546875 -130.40625 C 132.234375 -130.40625 147.421875 -135.179688 157.109375 -144.734375 C 166.804688 -154.296875 171.65625 -169.421875 171.65625 -190.109375 C 171.65625 -210.015625 166.875 -224.613281 157.3125 -233.90625 C 147.757812 -243.207031 133.421875 -247.859375 114.296875 -247.859375 C 107.753906 -247.859375 102.710938 -247.722656 99.171875 -247.453125 C 95.640625 -247.191406 93.085938 -246.601562 91.515625 -245.6875 C 89.953125 -244.769531 89.035156 -243.460938 88.765625 -241.765625 C 88.503906 -240.066406 88.375 -237.644531 88.375 -234.5 Z M 88.375 -131.984375 "/></g></g></g><g fill="#ffffff" fill-opacity="1"><g transform="translate(886.526715, 396.082227)"><g><path d="M 11.390625 -259.25 C 15.835938 -258.988281 19.632812 -258.789062 22.78125 -258.65625 C 25.925781 -258.519531 29.066406 -258.382812 32.203125 -258.25 C 35.347656 -258.125 38.625 -257.992188 42.03125 -257.859375 C 45.4375 -257.734375 49.492188 -257.671875 54.203125 -257.671875 C 57.609375 -257.671875 62.453125 -257.800781 68.734375 -258.0625 C 75.023438 -258.320312 81.179688 -258.71875 87.203125 -259.25 L 173.609375 -58.140625 L 257.671875 -259.25 C 267.617188 -258.71875 275.40625 -258.320312 281.03125 -258.0625 C 286.664062 -257.800781 291.1875 -257.671875 294.59375 -257.671875 C 295.125 -257.671875 298.269531 -257.734375 304.03125 -257.859375 C 309.789062 -257.992188 319.609375 -258.457031 333.484375 -259.25 L 333.484375 -249.8125 C 325.109375 -249.8125 318.429688 -249.15625 313.453125 -247.84375 C 308.472656 -246.539062 304.675781 -244.054688 302.0625 -240.390625 C 299.445312 -236.722656 297.742188 -231.550781 296.953125 -224.875 C 296.171875 -218.195312 295.78125 -209.488281 295.78125 -198.75 L 295.78125 -47.53125 C 295.78125 -38.625 296.171875 -31.75 296.953125 -26.90625 C 297.742188 -22.0625 299.445312 -18.394531 302.0625 -15.90625 C 304.675781 -13.414062 308.535156 -11.710938 313.640625 -10.796875 C 318.753906 -9.878906 325.757812 -9.03125 334.65625 -8.25 L 334.65625 0.78125 C 329.164062 0.78125 323.34375 0.648438 317.1875 0.390625 C 311.03125 0.128906 305.203125 -0.0625 299.703125 -0.1875 C 294.203125 -0.320312 289.289062 -0.453125 284.96875 -0.578125 C 280.65625 -0.710938 277.582031 -0.78125 275.75 -0.78125 C 273.914062 -0.78125 270.25 -0.710938 264.75 -0.578125 C 259.25 -0.453125 253.351562 -0.257812 247.0625 0 C 240.78125 0.257812 234.691406 0.453125 228.796875 0.578125 C 222.910156 0.710938 218.789062 0.78125 216.4375 0.78125 L 216.4375 -8.25 C 226.125 -9.03125 233.582031 -10.007812 238.8125 -11.1875 C 244.050781 -12.375 247.914062 -14.40625 250.40625 -17.28125 C 252.894531 -20.164062 254.332031 -24.03125 254.71875 -28.875 C 255.113281 -33.71875 255.3125 -40.195312 255.3125 -48.3125 L 255.3125 -221.9375 L 254.53125 -221.9375 L 163.40625 0.78125 L 156.71875 0.78125 L 61.28125 -221.9375 L 60.484375 -221.9375 L 60.484375 -54.59375 C 60.484375 -37.570312 63.429688 -25.722656 69.328125 -19.046875 C 75.222656 -12.367188 84.847656 -8.769531 98.203125 -8.25 L 98.203125 0.78125 C 86.410156 0.257812 76.519531 -0.128906 68.53125 -0.390625 C 60.550781 -0.648438 55.90625 -0.78125 54.59375 -0.78125 C 53.289062 -0.78125 49.234375 -0.648438 42.421875 -0.390625 C 35.609375 -0.128906 25.921875 0.257812 13.359375 0.78125 L 13.359375 -8.25 C 36.921875 -8.25 48.703125 -19.769531 48.703125 -42.8125 L 48.703125 -207.796875 C 48.703125 -216.691406 48.175781 -223.953125 47.125 -229.578125 C 46.082031 -235.210938 44.1875 -239.535156 41.4375 -242.546875 C 38.6875 -245.554688 34.890625 -247.585938 30.046875 -248.640625 C 25.203125 -249.691406 18.984375 -250.21875 11.390625 -250.21875 Z M 11.390625 -259.25 "/></g></g></g><g fill="#ffffff" fill-opacity="1"><g transform="translate(1232.191962, 396.082227)"><g><path d="M 155.9375 -263.953125 C 163.269531 -263.953125 170.273438 -263.5625 176.953125 -262.78125 C 183.628906 -262 190.109375 -260.625 196.390625 -258.65625 C 202.679688 -256.6875 209.035156 -254.128906 215.453125 -250.984375 C 221.867188 -247.847656 228.609375 -244.054688 235.671875 -239.609375 L 241.96875 -258.0625 L 247.859375 -258.0625 L 251 -180.6875 L 241.96875 -180.6875 C 238.039062 -204.519531 228.546875 -222.847656 213.484375 -235.671875 C 198.429688 -248.503906 179.773438 -254.921875 157.515625 -254.921875 C 143.367188 -254.921875 130.726562 -251.910156 119.59375 -245.890625 C 108.46875 -239.867188 99.039062 -231.226562 91.3125 -219.96875 C 83.59375 -208.707031 77.703125 -195.21875 73.640625 -179.5 C 69.585938 -163.789062 67.5625 -146.117188 67.5625 -126.484375 C 67.5625 -107.628906 69.65625 -90.609375 73.84375 -75.421875 C 78.03125 -60.234375 84.050781 -47.332031 91.90625 -36.71875 C 99.769531 -26.113281 109.265625 -17.992188 120.390625 -12.359375 C 131.523438 -6.734375 144.03125 -3.921875 157.90625 -3.921875 C 168.90625 -3.921875 178.984375 -5.359375 188.140625 -8.234375 C 197.304688 -11.117188 205.554688 -15.898438 212.890625 -22.578125 C 220.222656 -29.265625 226.703125 -38.101562 232.328125 -49.09375 C 237.960938 -60.09375 242.742188 -73.84375 246.671875 -90.34375 L 253.75 -90.34375 L 253.75 -4.328125 L 248.640625 -4.328125 L 239.21875 -24.359375 C 227.425781 -14.929688 214.65625 -7.660156 200.90625 -2.546875 C 187.164062 2.554688 170.867188 5.109375 152.015625 5.109375 C 131.847656 5.109375 113.515625 1.898438 97.015625 -4.515625 C 80.523438 -10.929688 66.453125 -19.832031 54.796875 -31.21875 C 43.140625 -42.613281 34.171875 -56.296875 27.890625 -72.265625 C 21.609375 -88.242188 18.46875 -105.789062 18.46875 -124.90625 C 18.46875 -145.332031 21.867188 -164.054688 28.671875 -181.078125 C 35.484375 -198.097656 44.976562 -212.757812 57.15625 -225.0625 C 69.332031 -237.375 83.863281 -246.929688 100.75 -253.734375 C 117.644531 -260.546875 136.039062 -263.953125 155.9375 -263.953125 Z M 155.9375 -263.953125 "/></g></g></g></svg>