<svg xmlns="http://www.w3.org/2000/svg" xmlns:xlink="http://www.w3.org/1999/xlink" width="1080" zoomAndPan="magnify" viewBox="0 0 810 809.999993" height="1080" preserveAspectRatio="xMidYMid meet" version="1.0"><path fill="#fefeff" d="M 83.328125 235.203125 C 83.914062 234.617188 84.527344 234.058594 85.171875 233.53125 C 85.8125 233.003906 86.476562 232.507812 87.167969 232.046875 C 87.855469 231.585938 88.566406 231.15625 89.300781 230.765625 C 90.03125 230.375 90.78125 230.019531 91.546875 229.699219 C 92.316406 229.382812 93.097656 229.101562 93.890625 228.859375 C 94.683594 228.621094 95.488281 228.417969 96.304688 228.253906 C 97.117188 228.09375 97.9375 227.972656 98.765625 227.890625 C 99.589844 227.808594 100.417969 227.765625 101.25 227.765625 C 102.082031 227.765625 102.910156 227.808594 103.734375 227.890625 C 104.5625 227.972656 105.382812 228.09375 106.195312 228.253906 C 107.011719 228.417969 107.816406 228.621094 108.609375 228.859375 C 109.402344 229.101562 110.183594 229.382812 110.953125 229.699219 C 111.71875 230.019531 112.46875 230.375 113.199219 230.765625 C 113.933594 231.15625 114.644531 231.585938 115.332031 232.046875 C 116.023438 232.507812 116.6875 233.003906 117.328125 233.53125 C 117.972656 234.058594 118.585938 234.617188 119.171875 235.203125 L 405 521.082031 L 690.828125 235.203125 C 691.414062 234.617188 692.03125 234.0625 692.671875 233.535156 C 693.3125 233.011719 693.980469 232.515625 694.667969 232.054688 C 695.359375 231.59375 696.070312 231.171875 696.804688 230.78125 C 697.535156 230.390625 698.285156 230.035156 699.050781 229.71875 C 699.816406 229.402344 700.597656 229.121094 701.390625 228.882812 C 702.1875 228.640625 702.988281 228.441406 703.804688 228.277344 C 704.617188 228.117188 705.4375 227.996094 706.261719 227.914062 C 707.089844 227.835938 707.917969 227.792969 708.746094 227.792969 C 709.574219 227.792969 710.402344 227.835938 711.230469 227.917969 C 712.054688 228 712.875 228.121094 713.6875 228.28125 C 714.5 228.445312 715.304688 228.644531 716.097656 228.886719 C 716.894531 229.128906 717.671875 229.40625 718.441406 229.726562 C 719.207031 230.042969 719.953125 230.398438 720.6875 230.789062 C 721.417969 231.179688 722.128906 231.605469 722.820312 232.066406 C 723.507812 232.527344 724.175781 233.023438 724.816406 233.546875 C 725.457031 234.074219 726.070312 234.632812 726.65625 235.21875 C 727.242188 235.804688 727.800781 236.417969 728.328125 237.058594 C 728.851562 237.699219 729.347656 238.367188 729.808594 239.054688 C 730.269531 239.746094 730.695312 240.457031 731.085938 241.1875 C 731.476562 241.921875 731.832031 242.667969 732.148438 243.433594 C 732.46875 244.203125 732.746094 244.980469 732.988281 245.777344 C 733.230469 246.570312 733.429688 247.375 733.59375 248.1875 C 733.753906 249 733.875 249.820312 733.957031 250.644531 C 734.039062 251.472656 734.082031 252.300781 734.082031 253.128906 C 734.082031 253.957031 734.039062 254.785156 733.960938 255.613281 C 733.878906 256.4375 733.757812 257.257812 733.597656 258.070312 C 733.433594 258.886719 733.234375 259.6875 732.992188 260.484375 C 732.753906 261.277344 732.472656 262.058594 732.15625 262.824219 C 731.839844 263.589844 731.484375 264.339844 731.09375 265.070312 C 730.703125 265.804688 730.277344 266.515625 729.820312 267.207031 C 729.359375 267.894531 728.863281 268.5625 728.339844 269.203125 C 727.8125 269.84375 727.257812 270.460938 726.671875 271.046875 L 422.921875 574.796875 C 422.335938 575.382812 421.722656 575.941406 421.078125 576.46875 C 420.4375 576.996094 419.773438 577.492188 419.082031 577.953125 C 418.394531 578.414062 417.683594 578.84375 416.949219 579.234375 C 416.21875 579.625 415.46875 579.980469 414.703125 580.300781 C 413.933594 580.617188 413.152344 580.898438 412.359375 581.140625 C 411.566406 581.378906 410.761719 581.582031 409.945312 581.746094 C 409.132812 581.90625 408.3125 582.027344 407.484375 582.109375 C 406.660156 582.191406 405.832031 582.234375 405 582.234375 C 404.167969 582.234375 403.339844 582.191406 402.515625 582.109375 C 401.6875 582.027344 400.867188 581.90625 400.054688 581.746094 C 399.238281 581.582031 398.433594 581.378906 397.640625 581.140625 C 396.847656 580.898438 396.066406 580.617188 395.296875 580.300781 C 394.53125 579.980469 393.78125 579.625 393.050781 579.234375 C 392.316406 578.84375 391.605469 578.414062 390.917969 577.953125 C 390.226562 577.492188 389.5625 576.996094 388.921875 576.46875 C 388.277344 575.941406 387.664062 575.382812 387.078125 574.796875 L 83.328125 271.046875 C 82.742188 270.460938 82.183594 269.847656 81.65625 269.203125 C 81.128906 268.5625 80.632812 267.898438 80.171875 267.207031 C 79.710938 266.519531 79.28125 265.808594 78.890625 265.074219 C 78.5 264.34375 78.144531 263.59375 77.824219 262.828125 C 77.507812 262.058594 77.226562 261.277344 76.984375 260.484375 C 76.746094 259.691406 76.542969 258.886719 76.378906 258.070312 C 76.21875 257.257812 76.097656 256.4375 76.015625 255.609375 C 75.933594 254.785156 75.890625 253.957031 75.890625 253.125 C 75.890625 252.292969 75.933594 251.464844 76.015625 250.640625 C 76.097656 249.8125 76.21875 248.992188 76.378906 248.179688 C 76.542969 247.363281 76.746094 246.558594 76.984375 245.765625 C 77.226562 244.972656 77.507812 244.191406 77.824219 243.421875 C 78.144531 242.65625 78.5 241.90625 78.890625 241.175781 C 79.28125 240.441406 79.710938 239.730469 80.171875 239.042969 C 80.632812 238.351562 81.128906 237.6875 81.65625 237.046875 C 82.183594 236.402344 82.742188 235.789062 83.328125 235.203125 " fill-opacity="1" fill-rule="evenodd"/></svg>