<svg xmlns="http://www.w3.org/2000/svg" xmlns:xlink="http://www.w3.org/1999/xlink" width="1080" zoomAndPan="magnify" viewBox="0 0 810 809.999993" height="1080" preserveAspectRatio="xMidYMid meet" version="1.0"><defs><clipPath id="deb2e6cae9"><path d="M 131 93.660156 L 679.632812 93.660156 L 679.632812 716.160156 L 131 716.160156 Z M 131 93.660156 " clip-rule="nonzero"/></clipPath></defs><rect x="-81" width="972" fill="#ffffff" y="-80.999999" height="971.999992" fill-opacity="1"/><rect x="-81" width="972" fill="#ffffff" y="-80.999999" height="971.999992" fill-opacity="1"/><path fill="#fefeff" d="M 83.328125 235.203125 C 83.914062 234.617188 84.527344 234.058594 85.171875 233.53125 C 85.8125 233.003906 86.476562 232.507812 87.167969 232.046875 C 87.855469 231.585938 88.566406 231.15625 89.300781 230.765625 C 90.03125 230.375 90.78125 230.019531 91.546875 229.699219 C 92.316406 229.382812 93.097656 229.101562 93.890625 228.859375 C 94.683594 228.621094 95.488281 228.417969 96.304688 228.253906 C 97.117188 228.09375 97.9375 227.972656 98.765625 227.890625 C 99.589844 227.808594 100.417969 227.765625 101.25 227.765625 C 102.082031 227.765625 102.910156 227.808594 103.734375 227.890625 C 104.5625 227.972656 105.382812 228.09375 106.195312 228.253906 C 107.011719 228.417969 107.816406 228.621094 108.609375 228.859375 C 109.402344 229.101562 110.183594 229.382812 110.953125 229.699219 C 111.71875 230.019531 112.46875 230.375 113.199219 230.765625 C 113.933594 231.15625 114.644531 231.585938 115.332031 232.046875 C 116.023438 232.507812 116.6875 233.003906 117.328125 233.53125 C 117.972656 234.058594 118.585938 234.617188 119.171875 235.203125 L 405 521.082031 L 690.828125 235.203125 C 691.414062 234.617188 692.03125 234.0625 692.671875 233.535156 C 693.3125 233.011719 693.980469 232.515625 694.667969 232.054688 C 695.359375 231.59375 696.070312 231.171875 696.804688 230.78125 C 697.535156 230.390625 698.285156 230.035156 699.050781 229.71875 C 699.816406 229.402344 700.597656 229.121094 701.390625 228.882812 C 702.1875 228.640625 702.988281 228.441406 703.804688 228.277344 C 704.617188 228.117188 705.4375 227.996094 706.261719 227.914062 C 707.089844 227.835938 707.917969 227.792969 708.746094 227.792969 C 709.574219 227.792969 710.402344 227.835938 711.230469 227.917969 C 712.054688 228 712.875 228.121094 713.6875 228.28125 C 714.5 228.445312 715.304688 228.644531 716.097656 228.886719 C 716.894531 229.128906 717.671875 229.40625 718.441406 229.726562 C 719.207031 230.042969 719.953125 230.398438 720.6875 230.789062 C 721.417969 231.179688 722.128906 231.605469 722.820312 232.066406 C 723.507812 232.527344 724.175781 233.023438 724.816406 233.546875 C 725.457031 234.074219 726.070312 234.632812 726.65625 235.21875 C 727.242188 235.804688 727.800781 236.417969 728.328125 237.058594 C 728.851562 237.699219 729.347656 238.367188 729.808594 239.054688 C 730.269531 239.746094 730.695312 240.457031 731.085938 241.1875 C 731.476562 241.921875 731.832031 242.667969 732.148438 243.433594 C 732.46875 244.203125 732.746094 244.980469 732.988281 245.777344 C 733.230469 246.570312 733.429688 247.375 733.59375 248.1875 C 733.753906 249 733.875 249.820312 733.957031 250.644531 C 734.039062 251.472656 734.082031 252.300781 734.082031 253.128906 C 734.082031 253.957031 734.039062 254.785156 733.960938 255.613281 C 733.878906 256.4375 733.757812 257.257812 733.597656 258.070312 C 733.433594 258.886719 733.234375 259.6875 732.992188 260.484375 C 732.753906 261.277344 732.472656 262.058594 732.15625 262.824219 C 731.839844 263.589844 731.484375 264.339844 731.09375 265.070312 C 730.703125 265.804688 730.277344 266.515625 729.820312 267.207031 C 729.359375 267.894531 728.863281 268.5625 728.339844 269.203125 C 727.8125 269.84375 727.257812 270.460938 726.671875 271.046875 L 422.921875 574.796875 C 422.335938 575.382812 421.722656 575.941406 421.078125 576.46875 C 420.4375 576.996094 419.773438 577.492188 419.082031 577.953125 C 418.394531 578.414062 417.683594 578.84375 416.949219 579.234375 C 416.21875 579.625 415.46875 579.980469 414.703125 580.300781 C 413.933594 580.617188 413.152344 580.898438 412.359375 581.140625 C 411.566406 581.378906 410.761719 581.582031 409.945312 581.746094 C 409.132812 581.90625 408.3125 582.027344 407.484375 582.109375 C 406.660156 582.191406 405.832031 582.234375 405 582.234375 C 404.167969 582.234375 403.339844 582.191406 402.515625 582.109375 C 401.6875 582.027344 400.867188 581.90625 400.054688 581.746094 C 399.238281 581.582031 398.433594 581.378906 397.640625 581.140625 C 396.847656 580.898438 396.066406 580.617188 395.296875 580.300781 C 394.53125 579.980469 393.78125 579.625 393.050781 579.234375 C 392.316406 578.84375 391.605469 578.414062 390.917969 577.953125 C 390.226562 577.492188 389.5625 576.996094 388.921875 576.46875 C 388.277344 575.941406 387.664062 575.382812 387.078125 574.796875 L 83.328125 271.046875 C 82.742188 270.460938 82.183594 269.847656 81.65625 269.203125 C 81.128906 268.5625 80.632812 267.898438 80.171875 267.207031 C 79.710938 266.519531 79.28125 265.808594 78.890625 265.074219 C 78.5 264.34375 78.144531 263.59375 77.824219 262.828125 C 77.507812 262.058594 77.226562 261.277344 76.984375 260.484375 C 76.746094 259.691406 76.542969 258.886719 76.378906 258.070312 C 76.21875 257.257812 76.097656 256.4375 76.015625 255.609375 C 75.933594 254.785156 75.890625 253.957031 75.890625 253.125 C 75.890625 252.292969 75.933594 251.464844 76.015625 250.640625 C 76.097656 249.8125 76.21875 248.992188 76.378906 248.179688 C 76.542969 247.363281 76.746094 246.558594 76.984375 245.765625 C 77.226562 244.972656 77.507812 244.191406 77.824219 243.421875 C 78.144531 242.65625 78.5 241.90625 78.890625 241.175781 C 79.28125 240.441406 79.710938 239.730469 80.171875 239.042969 C 80.632812 238.351562 81.128906 237.6875 81.65625 237.046875 C 82.183594 236.402344 82.742188 235.789062 83.328125 235.203125 " fill-opacity="1" fill-rule="evenodd"/><rect x="-81" width="972" fill="#222a6c" y="-80.999999" height="971.999992" fill-opacity="1"/><g clip-path="url(#deb2e6cae9)"><path fill="#fefeff" d="M 264.632812 415.972656 C 265.179688 425.300781 266.828125 434.519531 269.351562 443.519531 L 237.085938 447.582031 L 236.757812 447.582031 C 236.648438 447.25 236.539062 446.921875 236.429688 446.703125 C 234.890625 442.421875 233.574219 438.03125 232.476562 433.644531 C 231.597656 430.351562 230.832031 427.167969 230.28125 423.875 C 228.308594 413.558594 227.210938 403.023438 227.097656 392.378906 C 227.097656 391.9375 227.097656 391.609375 227.097656 391.28125 C 227.097656 369.003906 231.378906 347.820312 239.28125 328.175781 C 239.390625 327.957031 239.390625 327.847656 239.5 327.628906 C 239.941406 326.640625 240.378906 325.542969 240.816406 324.554688 C 268.691406 259.476562 336.078125 213.492188 414.4375 213.492188 C 418.824219 213.492188 423.214844 213.601562 427.605469 213.929688 C 462.175781 216.234375 495.320312 227.757812 523.304688 246.636719 C 528.570312 250.257812 533.621094 253.988281 538.558594 258.160156 C 540.425781 259.695312 542.179688 261.230469 543.9375 262.769531 L 521 308.53125 C 513.207031 301.289062 504.648438 294.8125 495.539062 289.328125 C 488.074219 284.828125 480.175781 280.984375 471.941406 277.804688 C 453.945312 270.78125 434.410156 267.046875 414.546875 267.046875 C 333.332031 267.046875 266.9375 327.738281 264.523438 403.351562 C 264.523438 404.78125 264.414062 406.316406 264.414062 407.742188 C 264.414062 410.375 264.414062 413.121094 264.632812 415.972656 Z M 531.316406 333.554688 C 450.761719 422.007812 328.394531 445.605469 282.851562 451.53125 C 280.328125 451.859375 278.023438 452.082031 276.046875 452.300781 L 276.925781 462.726562 C 278.351562 480.722656 282.082031 498.394531 288.117188 515.292969 L 291.300781 524.292969 L 331.578125 515.625 L 366.039062 508.269531 L 374.488281 521.660156 C 377.011719 527.257812 378.878906 532.742188 380.195312 538.011719 C 390.621094 577.410156 374.488281 605.945312 374.488281 605.945312 C 420.800781 676.839844 557.875 715.472656 560.070312 716.128906 C 540.207031 699.226562 537.242188 669.488281 537.242188 669.488281 L 538.777344 519.355469 L 512.109375 508.378906 L 470.296875 491.148438 L 479.1875 460.640625 L 537.132812 480.394531 L 549.09375 484.457031 L 549.863281 532.851562 L 546.898438 562.59375 L 573.675781 581.910156 C 579.605469 477.652344 546.132812 315.445312 546.132812 315.445312 C 541.523438 321.921875 536.472656 327.847656 531.316406 333.554688 Z M 528.351562 329.054688 C 502.671875 296.242188 461.1875 274.949219 414.328125 274.949219 C 336.296875 274.949219 273.082031 333.882812 273.082031 406.644531 C 273.082031 420.800781 275.496094 434.410156 279.886719 447.140625 C 325.433594 441.214844 447.6875 417.511719 528.351562 329.054688 Z M 285.703125 635.90625 C 346.503906 601.882812 352.101562 516.390625 352.101562 516.390625 L 296.789062 527.914062 Z M 656.207031 188.359375 C 659.609375 187.8125 663.121094 187.152344 666.523438 186.605469 C 648.964844 172.335938 627.234375 158.730469 603.308594 146.546875 C 586.1875 158.617188 570.164062 172.445312 555.679688 187.703125 C 551.398438 192.421875 547.117188 197.25 542.839844 201.96875 C 547.007812 197.140625 551.289062 192.3125 555.679688 187.703125 C 568.300781 173.65625 580.921875 159.714844 593.542969 145.667969 C 594.417969 144.679688 595.1875 143.804688 596.066406 142.816406 C 580.480469 135.132812 564.128906 128.109375 547.449219 121.964844 C 544.925781 125.914062 542.398438 129.867188 539.875 133.925781 C 540.753906 129.207031 540.972656 124.378906 540.753906 119.550781 C 519.242188 111.867188 497.515625 105.503906 476.660156 101.113281 C 470.84375 114.832031 466.566406 129.207031 464.042969 143.914062 C 464.152344 128.878906 464.152344 113.734375 464.261719 98.699219 C 446.703125 95.515625 430.019531 93.867188 414.875 93.867188 C 413.230469 93.867188 411.582031 93.867188 409.9375 93.867188 C 407.082031 117.683594 407.960938 141.9375 408.839844 165.972656 C 406.316406 142.046875 403.902344 118.011719 401.375 94.089844 C 370.867188 95.40625 341.453125 101.003906 313.910156 110.332031 C 312.261719 110.878906 310.726562 111.429688 309.078125 111.976562 C 309.628906 118.121094 310.835938 124.160156 312.8125 129.976562 C 312.8125 129.976562 312.8125 129.867188 312.703125 129.867188 C 313.359375 132.0625 314.019531 134.253906 314.785156 136.339844 C 309.628906 129.535156 305.128906 122.402344 301.066406 114.941406 C 284.714844 121.414062 269.351562 129.316406 255.085938 138.425781 C 261.011719 150.277344 267.046875 162.019531 272.972656 173.875 C 264.851562 163.449219 257.28125 152.691406 250.367188 141.5 C 234.671875 152.035156 220.40625 163.996094 207.566406 177.277344 C 207.894531 177.824219 208.222656 178.375 208.664062 179.03125 C 218.429688 194.507812 228.855469 209.542969 239.941406 224.027344 C 226.878906 210.859375 213.820312 197.6875 200.871094 184.519531 C 186.273438 200.761719 173.761719 218.648438 163.554688 237.636719 C 174.3125 246.855469 184.957031 255.964844 195.710938 265.183594 C 183.53125 258.925781 171.238281 252.78125 158.945312 246.636719 C 150.824219 263.207031 144.460938 280.546875 139.851562 298.324219 C 148.632812 303.265625 157.300781 308.421875 165.75 314.019531 C 156.53125 311.167969 147.3125 308.3125 138.09375 305.460938 C 135.460938 316.871094 133.484375 328.617188 132.386719 340.359375 C 137.21875 341.566406 142.046875 342.992188 146.65625 344.859375 C 141.828125 345.625 136.777344 345.957031 131.839844 345.957031 C 130.632812 361.867188 130.742188 378.113281 132.386719 394.242188 C 145.007812 392.269531 157.851562 391.9375 170.46875 393.257812 C 166.191406 393.035156 161.910156 394.574219 157.851562 396.109375 C 149.839844 399.183594 141.828125 402.253906 133.707031 405.328125 C 137.984375 435.070312 147.3125 464.8125 162.128906 493.125 L 163.226562 492.464844 C 164.542969 489.285156 166.410156 486.320312 168.605469 483.578125 C 174.421875 476.222656 182.433594 470.957031 190.664062 466.347656 C 203.503906 459.214844 217.222656 453.507812 231.378906 449.554688 C 231.269531 449.335938 231.160156 449.007812 231.050781 448.679688 L 230.941406 448.566406 C 229.402344 444.179688 228.085938 439.570312 226.878906 434.960938 C 226.003906 431.667969 225.234375 428.15625 224.574219 424.863281 C 222.378906 413.777344 221.28125 402.476562 221.28125 391.0625 C 221.28125 368.5625 225.5625 346.613281 233.902344 325.761719 C 233.902344 325.652344 234.011719 325.433594 234.125 325.214844 C 248.0625 290.863281 272.207031 261.5625 304.03125 240.378906 C 336.625 218.761719 374.816406 207.347656 414.546875 207.347656 C 454.273438 207.347656 494.113281 219.527344 526.707031 241.585938 C 534.167969 246.636719 541.300781 252.234375 547.886719 258.160156 C 551.507812 251.464844 556.777344 245.867188 562.265625 240.710938 C 582.457031 222.050781 608.246094 210.089844 634.914062 203.835938 C 649.511719 200.433594 664.4375 198.675781 679.363281 198.128906 C 672.449219 193.519531 664.4375 189.128906 656.207031 188.359375 Z M 656.207031 188.359375 " fill-opacity="1" fill-rule="nonzero"/></g></svg>