<svg xmlns="http://www.w3.org/2000/svg" xmlns:xlink="http://www.w3.org/1999/xlink" width="2000" zoomAndPan="magnify" viewBox="0 0 1500 525.000007" height="700" preserveAspectRatio="xMidYMid meet" version="1.0"><defs><g/><clipPath id="809562588f"><path d="M 11.703125 63.195312 L 362.035156 63.195312 L 362.035156 460.6875 L 11.703125 460.6875 Z M 11.703125 63.195312 " clip-rule="nonzero"/></clipPath><clipPath id="3059b1d25d"><path d="M 1259 134 L 1498.574219 134 L 1498.574219 402 L 1259 402 Z M 1259 134 " clip-rule="nonzero"/></clipPath></defs><g clip-path="url(#809562588f)"><path fill="#232a6c" d="M 97.269531 269.007812 C 97.621094 274.964844 98.671875 280.851562 100.28125 286.597656 L 79.679688 289.191406 L 79.46875 289.191406 C 79.398438 288.980469 79.328125 288.769531 79.257812 288.628906 C 78.277344 285.894531 77.4375 283.09375 76.734375 280.289062 C 76.175781 278.1875 75.683594 276.15625 75.335938 274.054688 C 74.074219 267.464844 73.371094 260.738281 73.300781 253.941406 C 73.300781 253.660156 73.300781 253.449219 73.300781 253.238281 C 73.300781 239.011719 76.035156 225.488281 81.082031 212.945312 C 81.152344 212.804688 81.152344 212.734375 81.222656 212.59375 C 81.5 211.964844 81.78125 211.261719 82.0625 210.632812 C 99.863281 169.074219 142.890625 139.710938 192.925781 139.710938 C 195.730469 139.710938 198.53125 139.78125 201.335938 139.992188 C 223.410156 141.464844 244.574219 148.824219 262.445312 160.875 C 265.808594 163.1875 269.03125 165.570312 272.183594 168.234375 C 273.375 169.214844 274.496094 170.195312 275.617188 171.179688 L 260.972656 200.402344 C 255.996094 195.773438 250.53125 191.640625 244.714844 188.136719 C 239.949219 185.261719 234.902344 182.8125 229.648438 180.777344 C 218.152344 176.292969 205.679688 173.910156 192.996094 173.910156 C 141.136719 173.910156 98.742188 212.664062 97.199219 260.949219 C 97.199219 261.859375 97.128906 262.839844 97.128906 263.75 C 97.128906 265.433594 97.128906 267.183594 97.269531 269.007812 Z M 267.558594 216.378906 C 216.121094 272.863281 137.984375 287.929688 108.902344 291.710938 C 107.289062 291.921875 105.820312 292.0625 104.558594 292.203125 L 105.117188 298.859375 C 106.027344 310.351562 108.410156 321.636719 112.265625 332.429688 L 114.296875 338.175781 L 140.015625 332.636719 L 162.019531 327.941406 L 167.417969 336.492188 C 169.027344 340.066406 170.21875 343.570312 171.0625 346.933594 C 177.71875 372.09375 167.417969 390.3125 167.417969 390.3125 C 196.992188 435.582031 284.519531 460.25 285.917969 460.671875 C 273.234375 449.878906 271.34375 430.886719 271.34375 430.886719 L 272.324219 335.019531 L 255.296875 328.011719 L 228.597656 317.011719 L 234.273438 297.527344 L 271.273438 310.144531 L 278.910156 312.734375 L 279.402344 343.640625 L 277.511719 362.632812 L 294.609375 374.964844 C 298.394531 308.390625 277.019531 204.816406 277.019531 204.816406 C 274.078125 208.949219 270.851562 212.734375 267.558594 216.378906 Z M 265.667969 213.503906 C 249.269531 192.550781 222.777344 178.957031 192.855469 178.957031 C 143.03125 178.957031 102.664062 216.589844 102.664062 263.050781 C 102.664062 272.089844 104.207031 280.78125 107.011719 288.910156 C 136.09375 285.125 214.160156 269.988281 265.667969 213.503906 Z M 110.722656 409.445312 C 149.546875 387.71875 153.121094 333.128906 153.121094 333.128906 L 117.800781 340.488281 Z M 347.308594 123.664062 C 349.480469 123.3125 351.722656 122.894531 353.894531 122.542969 C 342.683594 113.433594 328.808594 104.742188 313.53125 96.964844 C 302.597656 104.671875 292.367188 113.503906 283.117188 123.246094 C 280.382812 126.257812 277.652344 129.339844 274.917969 132.355469 C 277.582031 129.269531 280.3125 126.1875 283.117188 123.246094 C 291.175781 114.273438 299.234375 105.375 307.292969 96.40625 C 307.855469 95.773438 308.34375 95.214844 308.90625 94.582031 C 298.953125 89.675781 288.511719 85.191406 277.859375 81.265625 C 276.25 83.789062 274.636719 86.3125 273.023438 88.90625 C 273.585938 85.894531 273.726562 82.808594 273.585938 79.726562 C 259.851562 74.820312 245.976562 70.753906 232.660156 67.953125 C 228.945312 76.710938 226.214844 85.894531 224.601562 95.28125 C 224.671875 85.683594 224.671875 76.011719 224.742188 66.410156 C 213.527344 64.378906 202.878906 63.328125 193.207031 63.328125 C 192.15625 63.328125 191.105469 63.328125 190.050781 63.328125 C 188.230469 78.535156 188.792969 94.023438 189.351562 109.367188 C 187.738281 94.089844 186.199219 78.746094 184.585938 63.46875 C 165.105469 64.308594 146.324219 67.882812 128.734375 73.839844 C 127.683594 74.191406 126.703125 74.539062 125.652344 74.890625 C 126 78.816406 126.773438 82.667969 128.035156 86.382812 C 128.035156 86.382812 128.035156 86.3125 127.964844 86.3125 C 128.382812 87.714844 128.804688 89.117188 129.292969 90.449219 C 126 86.101562 123.128906 81.546875 120.535156 76.78125 C 110.09375 80.917969 100.28125 85.960938 91.171875 91.777344 C 94.957031 99.347656 98.8125 106.847656 102.59375 114.414062 C 97.410156 107.757812 92.574219 100.890625 88.160156 93.742188 C 78.136719 100.46875 69.027344 108.109375 60.828125 116.585938 C 61.039062 116.9375 61.25 117.289062 61.527344 117.707031 C 67.765625 127.589844 74.421875 137.191406 81.5 146.441406 C 73.164062 138.03125 64.824219 129.621094 56.554688 121.210938 C 47.234375 131.582031 39.246094 143.007812 32.726562 155.128906 C 39.59375 161.015625 46.390625 166.832031 53.261719 172.71875 C 45.480469 168.726562 37.632812 164.800781 29.785156 160.875 C 24.597656 171.457031 20.535156 182.53125 17.589844 193.882812 C 23.195312 197.035156 28.734375 200.332031 34.128906 203.90625 C 28.242188 202.082031 22.355469 200.261719 16.46875 198.4375 C 14.785156 205.726562 13.527344 213.226562 12.824219 220.722656 C 15.910156 221.492188 18.992188 222.40625 21.933594 223.597656 C 18.851562 224.085938 15.628906 224.296875 12.472656 224.296875 C 11.703125 234.457031 11.773438 244.832031 12.824219 255.132812 C 20.882812 253.871094 29.082031 253.660156 37.140625 254.5 C 34.410156 254.359375 31.675781 255.34375 29.082031 256.324219 C 23.96875 258.285156 18.851562 260.246094 13.664062 262.210938 C 16.398438 281.199219 22.355469 300.191406 31.816406 318.273438 L 32.515625 317.851562 C 33.359375 315.820312 34.550781 313.925781 35.949219 312.175781 C 39.664062 307.480469 44.78125 304.117188 50.035156 301.171875 C 58.234375 296.617188 66.996094 292.972656 76.035156 290.449219 C 75.964844 290.3125 75.894531 290.101562 75.824219 289.890625 L 75.753906 289.820312 C 74.773438 287.015625 73.933594 284.074219 73.164062 281.128906 C 72.601562 279.027344 72.109375 276.785156 71.691406 274.683594 C 70.289062 267.605469 69.589844 260.386719 69.589844 253.097656 C 69.589844 238.734375 72.320312 224.71875 77.648438 211.402344 C 77.648438 211.332031 77.71875 211.191406 77.789062 211.050781 C 86.6875 189.117188 102.105469 170.40625 122.425781 156.882812 C 143.242188 143.078125 167.628906 135.789062 192.996094 135.789062 C 218.363281 135.789062 243.800781 143.566406 264.617188 157.652344 C 269.382812 160.875 273.9375 164.449219 278.140625 168.234375 C 280.453125 163.960938 283.816406 160.386719 287.320312 157.09375 C 300.214844 145.179688 316.683594 137.539062 333.714844 133.546875 C 343.035156 131.375 352.5625 130.253906 362.09375 129.902344 C 357.679688 126.957031 352.5625 124.15625 347.308594 123.664062 Z M 347.308594 123.664062 " fill-opacity="1" fill-rule="nonzero"/></g><g fill="#232a6c" fill-opacity="1"><g transform="translate(375.882624, 396.869817)"><g><path d="M 236.859375 -260.4375 L 253.75 -260.4375 L 257.296875 -177.9375 L 240.015625 -177.9375 C 235.296875 -198.894531 226.390625 -215.003906 213.296875 -226.265625 C 200.203125 -237.523438 184.226562 -243.15625 165.375 -243.15625 C 152.28125 -243.15625 140.890625 -240.207031 131.203125 -234.3125 C 121.515625 -228.414062 113.394531 -220.296875 106.84375 -209.953125 C 100.300781 -199.609375 95.390625 -187.429688 92.109375 -173.421875 C 88.835938 -159.410156 87.203125 -144.421875 87.203125 -128.453125 C 87.203125 -111.171875 88.96875 -95.523438 92.5 -81.515625 C 96.039062 -67.503906 101.210938 -55.519531 108.015625 -45.5625 C 114.828125 -35.613281 123.273438 -27.953125 133.359375 -22.578125 C 143.441406 -17.210938 155.03125 -14.53125 168.125 -14.53125 C 188.03125 -14.53125 204.59375 -20.878906 217.8125 -33.578125 C 231.039062 -46.285156 239.878906 -64.945312 244.328125 -89.5625 L 260.046875 -89.5625 L 260.046875 -1.171875 L 244.328125 -1.171875 L 236.859375 -23.96875 C 226.910156 -14.53125 214.734375 -7.320312 200.328125 -2.34375 C 185.929688 2.625 169.695312 5.109375 151.625 5.109375 C 132.25 5.109375 114.441406 2.097656 98.203125 -3.921875 C 81.960938 -9.953125 68.015625 -18.597656 56.359375 -29.859375 C 44.710938 -41.117188 35.613281 -54.535156 29.0625 -70.109375 C 22.519531 -85.691406 19.25 -103.175781 19.25 -122.5625 C 19.25 -144.03125 22.847656 -163.40625 30.046875 -180.6875 C 37.253906 -197.976562 47.007812 -212.710938 59.3125 -224.890625 C 71.625 -237.066406 86.023438 -246.425781 102.515625 -252.96875 C 119.015625 -259.519531 136.691406 -262.796875 155.546875 -262.796875 C 169.691406 -262.796875 182.851562 -260.960938 195.03125 -257.296875 C 207.207031 -253.628906 219.1875 -247.210938 230.96875 -238.046875 Z M 236.859375 -260.4375 "/></g></g></g><g fill="#232a6c" fill-opacity="1"><g transform="translate(650.84691, 396.869817)"><g><path d="M 5.890625 -259.25 C 8.773438 -259.25 13.816406 -259.179688 21.015625 -259.046875 C 28.210938 -258.921875 35.539062 -258.726562 43 -258.46875 C 50.46875 -258.207031 57.015625 -258.007812 62.640625 -257.875 C 68.273438 -257.75 71.09375 -257.6875 71.09375 -257.6875 C 73.457031 -257.6875 77.382812 -257.75 82.875 -257.875 C 88.375 -258.007812 94.332031 -258.207031 100.75 -258.46875 C 107.164062 -258.726562 113.320312 -258.921875 119.21875 -259.046875 C 125.113281 -259.179688 129.628906 -259.25 132.765625 -259.25 C 165.503906 -259.25 191.035156 -253.421875 209.359375 -241.765625 C 227.691406 -230.117188 236.859375 -211.988281 236.859375 -187.375 C 236.859375 -175.582031 234.175781 -165.300781 228.8125 -156.53125 C 223.445312 -147.757812 216.242188 -140.554688 207.203125 -134.921875 C 198.171875 -129.296875 187.757812 -125.109375 175.96875 -122.359375 C 164.1875 -119.609375 151.882812 -118.234375 139.0625 -118.234375 L 102.921875 -118.234375 L 102.921875 -55 C 102.921875 -46.351562 103.441406 -39.28125 104.484375 -33.78125 C 105.535156 -28.28125 107.5 -24.023438 110.375 -21.015625 C 113.257812 -18.003906 117.253906 -15.972656 122.359375 -14.921875 C 127.460938 -13.878906 134.207031 -13.359375 142.59375 -13.359375 L 142.59375 0.78125 C 138.664062 0.78125 133.035156 0.710938 125.703125 0.578125 C 118.367188 0.453125 110.96875 0.257812 103.5 0 C 96.039062 -0.257812 89.234375 -0.453125 83.078125 -0.578125 C 76.921875 -0.710938 72.925781 -0.78125 71.09375 -0.78125 C 69.519531 -0.78125 65.914062 -0.710938 60.28125 -0.578125 C 54.65625 -0.453125 48.503906 -0.257812 41.828125 0 C 35.148438 0.257812 28.472656 0.453125 21.796875 0.578125 C 15.117188 0.710938 9.816406 0.78125 5.890625 0.78125 L 5.890625 -13.359375 C 13.484375 -13.617188 19.632812 -14.269531 24.34375 -15.3125 C 29.0625 -16.363281 32.796875 -18.394531 35.546875 -21.40625 C 38.296875 -24.414062 40.191406 -28.671875 41.234375 -34.171875 C 42.285156 -39.671875 42.8125 -47.003906 42.8125 -56.171875 L 42.8125 -203.875 C 42.8125 -212.507812 42.351562 -219.445312 41.4375 -224.6875 C 40.519531 -229.925781 38.6875 -234.050781 35.9375 -237.0625 C 33.1875 -240.070312 29.390625 -242.097656 24.546875 -243.140625 C 19.703125 -244.191406 13.484375 -244.847656 5.890625 -245.109375 Z M 102.921875 -136.3125 L 110.765625 -136.3125 C 133.023438 -136.3125 148.738281 -140.300781 157.90625 -148.28125 C 167.070312 -156.269531 171.65625 -169.953125 171.65625 -189.328125 C 171.65625 -205.304688 167.789062 -217.941406 160.0625 -227.234375 C 152.34375 -236.535156 139.84375 -241.1875 122.5625 -241.1875 C 118.894531 -241.1875 115.550781 -241.054688 112.53125 -240.796875 C 109.519531 -240.535156 107.363281 -240.007812 106.0625 -239.21875 C 104.75 -238.4375 103.894531 -237 103.5 -234.90625 C 103.113281 -232.8125 102.921875 -229.40625 102.921875 -224.6875 Z M 102.921875 -136.3125 "/></g></g></g><g fill="#232a6c" fill-opacity="1"><g transform="translate(894.386712, 396.869817)"><g><path d="M 5.890625 -259.25 C 7.722656 -259.25 10.734375 -259.179688 14.921875 -259.046875 C 19.117188 -258.921875 23.441406 -258.726562 27.890625 -258.46875 C 32.335938 -258.207031 36.523438 -258.007812 40.453125 -257.875 C 44.390625 -257.75 47.140625 -257.6875 48.703125 -257.6875 C 50.796875 -257.6875 53.804688 -257.75 57.734375 -257.875 C 61.671875 -258.007812 65.863281 -258.140625 70.3125 -258.265625 C 74.757812 -258.398438 79.40625 -258.597656 84.25 -258.859375 C 89.101562 -259.117188 93.625 -259.25 97.8125 -259.25 L 174.796875 -75.8125 L 245.5 -259.25 C 248.644531 -259.25 252.179688 -259.117188 256.109375 -258.859375 C 260.035156 -258.597656 264.03125 -258.398438 268.09375 -258.265625 C 272.15625 -258.140625 276.148438 -258.007812 280.078125 -257.875 C 284.003906 -257.75 287.40625 -257.6875 290.28125 -257.6875 C 296.3125 -257.6875 303.972656 -257.878906 313.265625 -258.265625 C 322.566406 -258.660156 331.40625 -258.988281 339.78125 -259.25 L 339.78125 -245.109375 C 332.1875 -244.847656 326.03125 -244.191406 321.3125 -243.140625 C 316.601562 -242.097656 312.875 -240.070312 310.125 -237.0625 C 307.375 -234.050781 305.472656 -229.796875 304.421875 -224.296875 C 303.378906 -218.796875 302.859375 -211.722656 302.859375 -203.078125 L 302.859375 -61.28125 C 302.859375 -58.394531 302.988281 -55.1875 303.25 -51.65625 C 303.507812 -48.125 303.898438 -44.65625 304.421875 -41.25 C 304.953125 -37.84375 305.609375 -34.632812 306.390625 -31.625 C 307.179688 -28.613281 308.226562 -26.320312 309.53125 -24.75 C 312.15625 -21.601562 315.5625 -19.242188 319.75 -17.671875 C 323.9375 -16.097656 330.484375 -14.660156 339.390625 -13.359375 L 339.390625 0.78125 C 335.460938 0.78125 329.832031 0.710938 322.5 0.578125 C 315.164062 0.453125 307.765625 0.257812 300.296875 0 C 292.835938 -0.257812 286.097656 -0.453125 280.078125 -0.578125 C 274.054688 -0.710938 270.390625 -0.78125 269.078125 -0.78125 C 266.984375 -0.78125 263.316406 -0.710938 258.078125 -0.578125 C 252.835938 -0.453125 247.070312 -0.257812 240.78125 0 C 234.5 0.257812 228.148438 0.453125 221.734375 0.578125 C 215.328125 0.710938 210.15625 0.78125 206.21875 0.78125 L 206.21875 -13.359375 C 215.914062 -14.660156 222.859375 -16.226562 227.046875 -18.0625 C 231.234375 -19.894531 234.503906 -22.515625 236.859375 -25.921875 C 237.910156 -27.753906 238.828125 -30.175781 239.609375 -33.1875 C 240.398438 -36.195312 241.054688 -39.40625 241.578125 -42.8125 C 242.097656 -46.21875 242.425781 -49.625 242.5625 -53.03125 C 242.695312 -56.4375 242.765625 -59.445312 242.765625 -62.0625 L 242.765625 -195.625 L 241.96875 -195.625 L 163.796875 0.78125 L 144.953125 0.78125 L 62.84375 -198.375 L 62.0625 -198.375 L 62.0625 -74.640625 C 62.0625 -62.585938 62.519531 -52.828125 63.4375 -45.359375 C 64.351562 -37.898438 66.1875 -31.941406 68.9375 -27.484375 C 71.6875 -23.035156 75.484375 -19.765625 80.328125 -17.671875 C 85.171875 -15.578125 91.519531 -14.140625 99.375 -13.359375 L 99.375 0.78125 C 84.1875 0.257812 72.796875 -0.128906 65.203125 -0.390625 C 57.609375 -0.648438 52.632812 -0.78125 50.28125 -0.78125 C 48.445312 -0.78125 44.320312 -0.648438 37.90625 -0.390625 C 31.488281 -0.128906 20.816406 0.257812 5.890625 0.78125 L 5.890625 -13.359375 C 15.054688 -14.398438 21.664062 -15.835938 25.71875 -17.671875 C 29.78125 -19.503906 33.125 -21.992188 35.75 -25.140625 C 38.363281 -28.546875 40.128906 -33.976562 41.046875 -41.4375 C 41.960938 -48.90625 42.421875 -55.519531 42.421875 -61.28125 L 42.421875 -227.828125 C 39.804688 -233.066406 35.679688 -237.0625 30.046875 -239.8125 C 24.421875 -242.5625 16.367188 -244.328125 5.890625 -245.109375 Z M 5.890625 -259.25 "/></g></g></g><g clip-path="url(#3059b1d25d)"><g fill="#232a6c" fill-opacity="1"><g transform="translate(1240.056077, 396.869817)"><g><path d="M 236.859375 -260.4375 L 253.75 -260.4375 L 257.296875 -177.9375 L 240.015625 -177.9375 C 235.296875 -198.894531 226.390625 -215.003906 213.296875 -226.265625 C 200.203125 -237.523438 184.226562 -243.15625 165.375 -243.15625 C 152.28125 -243.15625 140.890625 -240.207031 131.203125 -234.3125 C 121.515625 -228.414062 113.394531 -220.296875 106.84375 -209.953125 C 100.300781 -199.609375 95.390625 -187.429688 92.109375 -173.421875 C 88.835938 -159.410156 87.203125 -144.421875 87.203125 -128.453125 C 87.203125 -111.171875 88.96875 -95.523438 92.5 -81.515625 C 96.039062 -67.503906 101.210938 -55.519531 108.015625 -45.5625 C 114.828125 -35.613281 123.273438 -27.953125 133.359375 -22.578125 C 143.441406 -17.210938 155.03125 -14.53125 168.125 -14.53125 C 188.03125 -14.53125 204.59375 -20.878906 217.8125 -33.578125 C 231.039062 -46.285156 239.878906 -64.945312 244.328125 -89.5625 L 260.046875 -89.5625 L 260.046875 -1.171875 L 244.328125 -1.171875 L 236.859375 -23.96875 C 226.910156 -14.53125 214.734375 -7.320312 200.328125 -2.34375 C 185.929688 2.625 169.695312 5.109375 151.625 5.109375 C 132.25 5.109375 114.441406 2.097656 98.203125 -3.921875 C 81.960938 -9.953125 68.015625 -18.597656 56.359375 -29.859375 C 44.710938 -41.117188 35.613281 -54.535156 29.0625 -70.109375 C 22.519531 -85.691406 19.25 -103.175781 19.25 -122.5625 C 19.25 -144.03125 22.847656 -163.40625 30.046875 -180.6875 C 37.253906 -197.976562 47.007812 -212.710938 59.3125 -224.890625 C 71.625 -237.066406 86.023438 -246.425781 102.515625 -252.96875 C 119.015625 -259.519531 136.691406 -262.796875 155.546875 -262.796875 C 169.691406 -262.796875 182.851562 -260.960938 195.03125 -257.296875 C 207.207031 -253.628906 219.1875 -247.210938 230.96875 -238.046875 Z M 236.859375 -260.4375 "/></g></g></g></g></svg>